# xmcd
#
# Track frame offsets: 
#        150
#        16722
#        31964
#        46058
#        58708
#        74393
#        90058
#        107693
#
# Disc length: 1667 seconds
#
# Revision: 0
# Processed by: cddbd v1.5.2PL0 Copyright (c) Steve Scherf et al.
# Submitted via: ExactAudioCopy v0.99pb5
#
DISCID=53068108
DTITLE=George Strait - This Lonesome Cowboy Heart
DYEAR=2012
DGENRE=Country
TTITLE0=Living For The Night
TTITLE1=He's Got That Something Special
TTITLE2=Out of Sight Out of Mind
TTITLE3=When Did You Stop Loving Me
TTITLE4=Give It Away
TTITLE5=Baby's Gotten Good at Goodbye
TTITLE6=I Hate Everything
TTITLE7=I'd Like to Have That One Back
EXTD=
EXTT0=
EXTT1=
EXTT2=
EXTT3=
EXTT4=
EXTT5=
EXTT6=
EXTT7=
PLAYORDER=
